<?xml version="1.0" encoding="UTF-8" standalone="no"?>
<svg
   xmlns:dc="http://purl.org/dc/elements/1.1/"
   xmlns:cc="http://creativecommons.org/ns#"
   xmlns:rdf="http://www.w3.org/1999/02/22-rdf-syntax-ns#"
   xmlns:svg="http://www.w3.org/2000/svg"
   xmlns="http://www.w3.org/2000/svg"
   height="235.60001"
   width="338"
   xml:space="preserve"
   viewBox="0 0 338 235.6"
   y="0px"
   x="0px"
   id="Layer_1"
   version="1.1">
  <desc>A deep neural net with an input layer, two nondescript hidden layers, then a Softmax layer, and finally an output layer with the same number of nodes as the Softmax layer.</desc>
  <metadata
     id="metadata367"><rdf:RDF><cc:Work
         rdf:about=""><dc:format>image/svg+xml</dc:format><dc:type
           rdf:resource="http://purl.org/dc/dcmitype/StillImage" /><dc:title></dc:title></cc:Work></rdf:RDF></metadata><defs
     id="defs365" /><style
     id="style2"
     type="text/css">
	.st0{fill-rule:evenodd;clip-rule:evenodd;fill:#B4A7D6;}
	.st1{fill-rule:evenodd;clip-rule:evenodd;fill:#FFE599;}
	.st2{fill-rule:evenodd;clip-rule:evenodd;fill:#FFFFFF;}
	.st3{fill:none;stroke:#424242;stroke-width:0.75;stroke-linejoin:round;stroke-miterlimit:14.3356;}
	.st4{opacity:0;fill-rule:evenodd;clip-rule:evenodd;}
	.st5{fill:none;stroke:#000000;stroke-width:0.75;stroke-linejoin:round;stroke-miterlimit:14.3356;}
	.st6{fill:#666666;}
	.st7{font-family:'Roboto-Regular';}
	.st8{font-size:12px;}
	.st9{fill:none;stroke:#424242;stroke-width:0.75;stroke-linejoin:round;stroke-miterlimit:14.3356;stroke-dasharray:0.75,2.25;}
	.st10{fill-rule:evenodd;clip-rule:evenodd;fill:#424242;}
	.st11{fill:none;stroke:#424242;stroke-width:0.75;stroke-miterlimit:11.4737;}
	.st12{font-family:'Roboto-Bold';}
</style><path
     style="clip-rule:evenodd;fill:#b4a7d6;fill-rule:evenodd"
     id="path4"
     d="m 200.2,52.5 v 0 c 0,-3.3 2.7,-6 6,-6 h 24 c 1.6,0 3.1,0.6 4.2,1.8 1.1,1.1 1.8,2.6 1.8,4.2 V 197 c 0,3.3 -2.7,6 -6,6 h -24 c -3.3,0 -6,-2.7 -6,-6 z"
     class="st0" /><path
     style="clip-rule:evenodd;fill:#ffe599;fill-rule:evenodd"
     id="path6"
     d="m 44,32.2 v 0 c 0,-3.3 2.7,-6 6,-6 h 24 c 1.6,0 3.1,0.6 4.2,1.8 1.1,1.1 1.8,2.6 1.8,4.2 v 186.4 c 0,3.3 -2.7,6 -6,6 H 50 c -3.3,0 -6,-2.7 -6,-6 z"
     class="st1" /><path
     style="clip-rule:evenodd;fill:#ffe599;fill-rule:evenodd"
     id="path8"
     d="m 122.2,52.5 v 0 c 0,-3.3 2.7,-6 6,-6 h 24 c 1.6,0 3.1,0.6 4.2,1.8 1.1,1.1 1.8,2.6 1.8,4.2 V 197 c 0,3.3 -2.7,6 -6,6 h -24 c -3.3,0 -6,-2.7 -6,-6 z"
     class="st1" /><path
     style="clip-rule:evenodd;fill:#ffffff;fill-rule:evenodd"
     id="path10"
     d="m 129.7,66.8 v 0 c 0,-5.4 4.7,-9.8 10.5,-9.8 5.8,0 10.5,4.4 10.5,9.8 0,5.4 -4.7,9.8 -10.5,9.8 -5.8,-0.1 -10.5,-4.4 -10.5,-9.8 z"
     class="st2" /><path
     style="fill:none;stroke:#424242;stroke-width:0.75;stroke-linejoin:round;stroke-miterlimit:14.3355999"
     id="path12"
     d="m 129.7,66.8 v 0 c 0,-5.4 4.7,-9.8 10.5,-9.8 5.8,0 10.5,4.4 10.5,9.8 0,5.4 -4.7,9.8 -10.5,9.8 -5.8,-0.1 -10.5,-4.4 -10.5,-9.8 z"
     class="st3" /><path
     style="clip-rule:evenodd;fill:#ffffff;fill-rule:evenodd"
     id="path14"
     d="m 129.6,94.9 v 0 c 0,-5.4 4.7,-9.8 10.5,-9.8 5.8,0 10.5,4.4 10.5,9.8 0,5.4 -4.7,9.8 -10.5,9.8 -5.8,0 -10.5,-4.4 -10.5,-9.8 z"
     class="st2" /><path
     style="fill:none;stroke:#424242;stroke-width:0.75;stroke-linejoin:round;stroke-miterlimit:14.3355999"
     id="path16"
     d="m 129.6,94.9 v 0 c 0,-5.4 4.7,-9.8 10.5,-9.8 5.8,0 10.5,4.4 10.5,9.8 0,5.4 -4.7,9.8 -10.5,9.8 -5.8,0 -10.5,-4.4 -10.5,-9.8 z"
     class="st3" /><path
     style="clip-rule:evenodd;fill:#ffffff;fill-rule:evenodd"
     id="path18"
     d="m 129.6,123.1 v 0 c 0,-5.4 4.7,-9.8 10.5,-9.8 5.8,0 10.5,4.4 10.5,9.8 0,5.4 -4.7,9.8 -10.5,9.8 -5.8,0 -10.5,-4.4 -10.5,-9.8 z"
     class="st2" /><path
     style="fill:none;stroke:#424242;stroke-width:0.75;stroke-linejoin:round;stroke-miterlimit:14.3355999"
     id="path20"
     d="m 129.6,123.1 v 0 c 0,-5.4 4.7,-9.8 10.5,-9.8 5.8,0 10.5,4.4 10.5,9.8 0,5.4 -4.7,9.8 -10.5,9.8 -5.8,0 -10.5,-4.4 -10.5,-9.8 z"
     class="st3" /><path
     style="clip-rule:evenodd;fill:#ffffff;fill-rule:evenodd"
     id="path22"
     d="m 129.6,151.3 v 0 c 0,-5.4 4.7,-9.8 10.5,-9.8 5.8,0 10.5,4.4 10.5,9.8 0,5.4 -4.7,9.8 -10.5,9.8 -5.8,0 -10.5,-4.4 -10.5,-9.8 z"
     class="st2" /><path
     style="fill:none;stroke:#424242;stroke-width:0.75;stroke-linejoin:round;stroke-miterlimit:14.3355999"
     id="path24"
     d="m 129.6,151.3 v 0 c 0,-5.4 4.7,-9.8 10.5,-9.8 5.8,0 10.5,4.4 10.5,9.8 0,5.4 -4.7,9.8 -10.5,9.8 -5.8,0 -10.5,-4.4 -10.5,-9.8 z"
     class="st3" /><path
     style="clip-rule:evenodd;fill:#ffffff;fill-rule:evenodd"
     id="path26"
     d="m 129.6,179.5 v 0 c 0,-5.4 4.7,-9.8 10.5,-9.8 5.8,0 10.5,4.4 10.5,9.8 0,5.4 -4.7,9.8 -10.5,9.8 -5.8,0 -10.5,-4.4 -10.5,-9.8 z"
     class="st2" /><path
     style="fill:none;stroke:#424242;stroke-width:0.75;stroke-linejoin:round;stroke-miterlimit:14.3355999"
     id="path28"
     d="m 129.6,179.5 v 0 c 0,-5.4 4.7,-9.8 10.5,-9.8 5.8,0 10.5,4.4 10.5,9.8 0,5.4 -4.7,9.8 -10.5,9.8 -5.8,0 -10.5,-4.4 -10.5,-9.8 z"
     class="st3" /><path
     style="clip-rule:evenodd;fill:#ffffff;fill-rule:evenodd"
     id="path30"
     d="m 207.8,66.8 v 0 c 0,-5.4 4.7,-9.8 10.5,-9.8 5.8,0 10.5,4.4 10.5,9.8 0,5.4 -4.7,9.8 -10.5,9.8 -5.8,-0.1 -10.5,-4.4 -10.5,-9.8 z"
     class="st2" /><path
     style="fill:none;stroke:#424242;stroke-width:0.75;stroke-linejoin:round;stroke-miterlimit:14.3355999"
     id="path32"
     d="m 207.8,66.8 v 0 c 0,-5.4 4.7,-9.8 10.5,-9.8 5.8,0 10.5,4.4 10.5,9.8 0,5.4 -4.7,9.8 -10.5,9.8 -5.8,-0.1 -10.5,-4.4 -10.5,-9.8 z"
     class="st3" /><path
     style="clip-rule:evenodd;fill:#ffffff;fill-rule:evenodd"
     id="path34"
     d="m 207.8,94.9 v 0 c 0,-5.4 4.7,-9.8 10.5,-9.8 5.8,0 10.5,4.4 10.5,9.8 0,5.4 -4.7,9.8 -10.5,9.8 -5.8,0 -10.5,-4.4 -10.5,-9.8 z"
     class="st2" /><path
     style="fill:none;stroke:#424242;stroke-width:0.75;stroke-linejoin:round;stroke-miterlimit:14.3355999"
     id="path36"
     d="m 207.8,94.9 v 0 c 0,-5.4 4.7,-9.8 10.5,-9.8 5.8,0 10.5,4.4 10.5,9.8 0,5.4 -4.7,9.8 -10.5,9.8 -5.8,0 -10.5,-4.4 -10.5,-9.8 z"
     class="st3" /><path
     style="clip-rule:evenodd;fill:#ffffff;fill-rule:evenodd"
     id="path38"
     d="m 207.8,123.1 v 0 c 0,-5.4 4.7,-9.8 10.5,-9.8 5.8,0 10.5,4.4 10.5,9.8 0,5.4 -4.7,9.8 -10.5,9.8 -5.8,0 -10.5,-4.4 -10.5,-9.8 z"
     class="st2" /><path
     style="fill:none;stroke:#424242;stroke-width:0.75;stroke-linejoin:round;stroke-miterlimit:14.3355999"
     id="path40"
     d="m 207.8,123.1 v 0 c 0,-5.4 4.7,-9.8 10.5,-9.8 5.8,0 10.5,4.4 10.5,9.8 0,5.4 -4.7,9.8 -10.5,9.8 -5.8,0 -10.5,-4.4 -10.5,-9.8 z"
     class="st3" /><path
     style="clip-rule:evenodd;fill:#ffffff;fill-rule:evenodd"
     id="path42"
     d="m 207.8,151.3 v 0 c 0,-5.4 4.7,-9.8 10.5,-9.8 5.8,0 10.5,4.4 10.5,9.8 0,5.4 -4.7,9.8 -10.5,9.8 -5.8,0 -10.5,-4.4 -10.5,-9.8 z"
     class="st2" /><path
     style="fill:none;stroke:#424242;stroke-width:0.75;stroke-linejoin:round;stroke-miterlimit:14.3355999"
     id="path44"
     d="m 207.8,151.3 v 0 c 0,-5.4 4.7,-9.8 10.5,-9.8 5.8,0 10.5,4.4 10.5,9.8 0,5.4 -4.7,9.8 -10.5,9.8 -5.8,0 -10.5,-4.4 -10.5,-9.8 z"
     class="st3" /><path
     style="clip-rule:evenodd;fill:#ffffff;fill-rule:evenodd"
     id="path46"
     d="m 207.8,179.5 v 0 c 0,-5.4 4.7,-9.8 10.5,-9.8 5.8,0 10.5,4.4 10.5,9.8 0,5.4 -4.7,9.8 -10.5,9.8 -5.8,0 -10.5,-4.4 -10.5,-9.8 z"
     class="st2" /><path
     style="fill:none;stroke:#424242;stroke-width:0.75;stroke-linejoin:round;stroke-miterlimit:14.3355999"
     id="path48"
     d="m 207.8,179.5 v 0 c 0,-5.4 4.7,-9.8 10.5,-9.8 5.8,0 10.5,4.4 10.5,9.8 0,5.4 -4.7,9.8 -10.5,9.8 -5.8,0 -10.5,-4.4 -10.5,-9.8 z"
     class="st3" /><line
     style="clip-rule:evenodd;opacity:0;fill-rule:evenodd"
     id="line50"
     y2="66.800003"
     x2="207.8"
     y1="66.800003"
     x1="150.7"
     class="st4" /><line
     style="fill:none;stroke:#424242;stroke-width:0.75;stroke-linejoin:round;stroke-miterlimit:14.3355999"
     id="line52"
     y2="66.800003"
     x2="207.8"
     y1="66.800003"
     x1="150.7"
     class="st3" /><line
     style="clip-rule:evenodd;opacity:0;fill-rule:evenodd"
     id="line54"
     y2="94.900002"
     x2="207.8"
     y1="94.900002"
     x1="150.7"
     class="st4" /><line
     style="fill:none;stroke:#424242;stroke-width:0.75;stroke-linejoin:round;stroke-miterlimit:14.3355999"
     id="line56"
     y2="94.900002"
     x2="207.8"
     y1="94.900002"
     x1="150.7"
     class="st3" /><line
     style="clip-rule:evenodd;opacity:0;fill-rule:evenodd"
     id="line58"
     y2="123.1"
     x2="207.8"
     y1="123.1"
     x1="150.7"
     class="st4" /><line
     style="fill:none;stroke:#424242;stroke-width:0.75;stroke-linejoin:round;stroke-miterlimit:14.3355999"
     id="line60"
     y2="123.1"
     x2="207.8"
     y1="123.1"
     x1="150.7"
     class="st3" /><line
     style="clip-rule:evenodd;opacity:0;fill-rule:evenodd"
     id="line62"
     y2="151.3"
     x2="207.8"
     y1="151.3"
     x1="150.7"
     class="st4" /><line
     style="fill:none;stroke:#424242;stroke-width:0.75;stroke-linejoin:round;stroke-miterlimit:14.3355999"
     id="line64"
     y2="151.3"
     x2="207.8"
     y1="151.3"
     x1="150.7"
     class="st3" /><line
     style="clip-rule:evenodd;opacity:0;fill-rule:evenodd"
     id="line66"
     y2="179.5"
     x2="207.8"
     y1="179.5"
     x1="150.7"
     class="st4" /><line
     style="fill:none;stroke:#424242;stroke-width:0.75;stroke-linejoin:round;stroke-miterlimit:14.3355999"
     id="line68"
     y2="179.5"
     x2="207.8"
     y1="179.5"
     x1="150.7"
     class="st3" /><line
     style="clip-rule:evenodd;opacity:0;fill-rule:evenodd"
     id="line70"
     y2="94.900002"
     x2="207.8"
     y1="66.800003"
     x1="150.7"
     class="st4" /><line
     style="fill:none;stroke:#424242;stroke-width:0.75;stroke-linejoin:round;stroke-miterlimit:14.3355999"
     id="line72"
     y2="94.900002"
     x2="207.8"
     y1="66.800003"
     x1="150.7"
     class="st3" /><line
     style="clip-rule:evenodd;opacity:0;fill-rule:evenodd"
     id="line74"
     y2="123.1"
     x2="207.8"
     y1="94.900002"
     x1="150.7"
     class="st4" /><line
     style="fill:none;stroke:#424242;stroke-width:0.75;stroke-linejoin:round;stroke-miterlimit:14.3355999"
     id="line76"
     y2="123.1"
     x2="207.8"
     y1="94.900002"
     x1="150.7"
     class="st3" /><line
     style="clip-rule:evenodd;opacity:0;fill-rule:evenodd"
     id="line78"
     y2="151.3"
     x2="207.8"
     y1="123.1"
     x1="150.7"
     class="st4" /><line
     style="fill:none;stroke:#424242;stroke-width:0.75;stroke-linejoin:round;stroke-miterlimit:14.3355999"
     id="line80"
     y2="151.3"
     x2="207.8"
     y1="123.1"
     x1="150.7"
     class="st3" /><line
     style="clip-rule:evenodd;opacity:0;fill-rule:evenodd"
     id="line82"
     y2="179.5"
     x2="207.8"
     y1="151.3"
     x1="150.7"
     class="st4" /><line
     style="fill:none;stroke:#424242;stroke-width:0.75;stroke-linejoin:round;stroke-miterlimit:14.3355999"
     id="line84"
     y2="179.5"
     x2="207.8"
     y1="151.3"
     x1="150.7"
     class="st3" /><line
     style="clip-rule:evenodd;opacity:0;fill-rule:evenodd"
     id="line86"
     y2="151.3"
     x2="207.8"
     y1="179.5"
     x1="150.7"
     class="st4" /><line
     style="fill:none;stroke:#424242;stroke-width:0.75;stroke-linejoin:round;stroke-miterlimit:14.3355999"
     id="line88"
     y2="151.3"
     x2="207.8"
     y1="179.5"
     x1="150.7"
     class="st3" /><line
     style="clip-rule:evenodd;opacity:0;fill-rule:evenodd"
     id="line90"
     y2="123.1"
     x2="207.8"
     y1="151.3"
     x1="150.7"
     class="st4" /><line
     style="fill:none;stroke:#424242;stroke-width:0.75;stroke-linejoin:round;stroke-miterlimit:14.3355999"
     id="line92"
     y2="123.1"
     x2="207.8"
     y1="151.3"
     x1="150.7"
     class="st3" /><line
     style="clip-rule:evenodd;opacity:0;fill-rule:evenodd"
     id="line94"
     y2="94.900002"
     x2="207.8"
     y1="123.1"
     x1="150.7"
     class="st4" /><line
     style="fill:none;stroke:#424242;stroke-width:0.75;stroke-linejoin:round;stroke-miterlimit:14.3355999"
     id="line96"
     y2="94.900002"
     x2="207.8"
     y1="123.1"
     x1="150.7"
     class="st3" /><line
     style="clip-rule:evenodd;opacity:0;fill-rule:evenodd"
     id="line98"
     y2="66.800003"
     x2="207.8"
     y1="94.900002"
     x1="150.7"
     class="st4" /><line
     style="fill:none;stroke:#424242;stroke-width:0.75;stroke-linejoin:round;stroke-miterlimit:14.3355999"
     id="line100"
     y2="66.800003"
     x2="207.8"
     y1="94.900002"
     x1="150.7"
     class="st3" /><line
     style="clip-rule:evenodd;opacity:0;fill-rule:evenodd"
     id="line102"
     y2="123.1"
     x2="207.8"
     y1="66.800003"
     x1="150.7"
     class="st4" /><line
     style="fill:none;stroke:#424242;stroke-width:0.75;stroke-linejoin:round;stroke-miterlimit:14.3355999"
     id="line104"
     y2="123.1"
     x2="207.8"
     y1="66.800003"
     x1="150.7"
     class="st3" /><line
     style="clip-rule:evenodd;opacity:0;fill-rule:evenodd"
     id="line106"
     y2="151.3"
     x2="207.8"
     y1="94.900002"
     x1="150.7"
     class="st4" /><line
     style="fill:none;stroke:#424242;stroke-width:0.75;stroke-linejoin:round;stroke-miterlimit:14.3355999"
     id="line108"
     y2="151.3"
     x2="207.8"
     y1="94.900002"
     x1="150.7"
     class="st3" /><line
     style="clip-rule:evenodd;opacity:0;fill-rule:evenodd"
     id="line110"
     y2="179.5"
     x2="207.8"
     y1="123.1"
     x1="150.7"
     class="st4" /><line
     style="fill:none;stroke:#424242;stroke-width:0.75;stroke-linejoin:round;stroke-miterlimit:14.3355999"
     id="line112"
     y2="179.5"
     x2="207.8"
     y1="123.1"
     x1="150.7"
     class="st3" /><line
     style="clip-rule:evenodd;opacity:0;fill-rule:evenodd"
     id="line114"
     y2="123.1"
     x2="207.8"
     y1="179.5"
     x1="150.7"
     class="st4" /><line
     style="fill:none;stroke:#424242;stroke-width:0.75;stroke-linejoin:round;stroke-miterlimit:14.3355999"
     id="line116"
     y2="123.1"
     x2="207.8"
     y1="179.5"
     x1="150.7"
     class="st3" /><line
     style="clip-rule:evenodd;opacity:0;fill-rule:evenodd"
     id="line118"
     y2="94.900002"
     x2="207.8"
     y1="151.3"
     x1="150.7"
     class="st4" /><line
     style="fill:none;stroke:#424242;stroke-width:0.75;stroke-linejoin:round;stroke-miterlimit:14.3355999"
     id="line120"
     y2="94.900002"
     x2="207.8"
     y1="151.3"
     x1="150.7"
     class="st3" /><line
     style="clip-rule:evenodd;opacity:0;fill-rule:evenodd"
     id="line122"
     y2="66.800003"
     x2="207.8"
     y1="123.1"
     x1="150.7"
     class="st4" /><line
     style="fill:none;stroke:#424242;stroke-width:0.75;stroke-linejoin:round;stroke-miterlimit:14.3355999"
     id="line124"
     y2="66.800003"
     x2="207.8"
     y1="123.1"
     x1="150.7"
     class="st3" /><line
     style="clip-rule:evenodd;opacity:0;fill-rule:evenodd"
     id="line126"
     y2="151.3"
     x2="207.8"
     y1="66.800003"
     x1="150.7"
     class="st4" /><line
     style="fill:none;stroke:#424242;stroke-width:0.75;stroke-linejoin:round;stroke-miterlimit:14.3355999"
     id="line128"
     y2="151.3"
     x2="207.8"
     y1="66.800003"
     x1="150.7"
     class="st3" /><line
     style="clip-rule:evenodd;opacity:0;fill-rule:evenodd"
     id="line130"
     y2="179.5"
     x2="207.8"
     y1="94.900002"
     x1="150.7"
     class="st4" /><line
     style="fill:none;stroke:#424242;stroke-width:0.75;stroke-linejoin:round;stroke-miterlimit:14.3355999"
     id="line132"
     y2="179.5"
     x2="207.8"
     y1="94.900002"
     x1="150.7"
     class="st3" /><line
     style="clip-rule:evenodd;opacity:0;fill-rule:evenodd"
     id="line134"
     y2="94.900002"
     x2="207.8"
     y1="179.5"
     x1="150.7"
     class="st4" /><line
     style="fill:none;stroke:#424242;stroke-width:0.75;stroke-linejoin:round;stroke-miterlimit:14.3355999"
     id="line136"
     y2="94.900002"
     x2="207.8"
     y1="179.5"
     x1="150.7"
     class="st3" /><line
     style="clip-rule:evenodd;opacity:0;fill-rule:evenodd"
     id="line138"
     y2="66.800003"
     x2="207.8"
     y1="151.3"
     x1="150.7"
     class="st4" /><line
     style="fill:none;stroke:#424242;stroke-width:0.75;stroke-linejoin:round;stroke-miterlimit:14.3355999"
     id="line140"
     y2="66.800003"
     x2="207.8"
     y1="151.3"
     x1="150.7"
     class="st3" /><line
     style="clip-rule:evenodd;opacity:0;fill-rule:evenodd"
     id="line142"
     y2="66.800003"
     x2="207.8"
     y1="179.5"
     x1="150.7"
     class="st4" /><line
     style="fill:none;stroke:#424242;stroke-width:0.75;stroke-linejoin:round;stroke-miterlimit:14.3355999"
     id="line144"
     y2="66.800003"
     x2="207.8"
     y1="179.5"
     x1="150.7"
     class="st3" /><line
     style="clip-rule:evenodd;opacity:0;fill-rule:evenodd"
     id="line146"
     y2="179.5"
     x2="207.8"
     y1="66.800003"
     x1="150.7"
     class="st4" /><line
     style="fill:none;stroke:#424242;stroke-width:0.75;stroke-linejoin:round;stroke-miterlimit:14.3355999"
     id="line148"
     y2="179.5"
     x2="207.8"
     y1="66.800003"
     x1="150.7"
     class="st3" /><path
     style="clip-rule:evenodd;fill:#ffffff;fill-rule:evenodd"
     id="path150"
     d="m 50.1,68.8 v 0 c 0,-5.4 4.7,-9.8 10.5,-9.8 5.8,0 10.5,4.4 10.5,9.8 0,5.4 -4.7,9.8 -10.5,9.8 -5.8,0 -10.5,-4.4 -10.5,-9.8 z"
     class="st2" /><path
     style="fill:none;stroke:#000000;stroke-width:0.75;stroke-linejoin:round;stroke-miterlimit:14.3355999"
     id="path152"
     d="m 50.1,68.8 v 0 c 0,-5.4 4.7,-9.8 10.5,-9.8 5.8,0 10.5,4.4 10.5,9.8 0,5.4 -4.7,9.8 -10.5,9.8 -5.8,0 -10.5,-4.4 -10.5,-9.8 z"
     class="st5" /><path
     style="clip-rule:evenodd;fill:#ffffff;fill-rule:evenodd"
     id="path154"
     d="m 50.8,97 v 0 c 0,-5.4 4.7,-9.8 10.5,-9.8 5.8,0 10.5,4.4 10.5,9.8 0,5.4 -4.7,9.8 -10.5,9.8 -5.8,0 -10.5,-4.4 -10.5,-9.8 z"
     class="st2" /><path
     style="fill:none;stroke:#000000;stroke-width:0.75;stroke-linejoin:round;stroke-miterlimit:14.3355999"
     id="path156"
     d="m 50.8,97 v 0 c 0,-5.4 4.7,-9.8 10.5,-9.8 5.8,0 10.5,4.4 10.5,9.8 0,5.4 -4.7,9.8 -10.5,9.8 -5.8,0 -10.5,-4.4 -10.5,-9.8 z"
     class="st5" /><path
     style="clip-rule:evenodd;fill:#ffffff;fill-rule:evenodd"
     id="path158"
     d="m 50.8,125.2 v 0 c 0,-5.4 4.7,-9.8 10.5,-9.8 5.8,0 10.5,4.4 10.5,9.8 0,5.4 -4.7,9.8 -10.5,9.8 -5.8,0 -10.5,-4.4 -10.5,-9.8 z"
     class="st2" /><path
     style="fill:none;stroke:#000000;stroke-width:0.75;stroke-linejoin:round;stroke-miterlimit:14.3355999"
     id="path160"
     d="m 50.8,125.2 v 0 c 0,-5.4 4.7,-9.8 10.5,-9.8 5.8,0 10.5,4.4 10.5,9.8 0,5.4 -4.7,9.8 -10.5,9.8 -5.8,0 -10.5,-4.4 -10.5,-9.8 z"
     class="st5" /><path
     style="clip-rule:evenodd;fill:#ffffff;fill-rule:evenodd"
     id="path162"
     d="m 50.8,153.3 v 0 c 0,-5.4 4.7,-9.8 10.5,-9.8 5.8,0 10.5,4.4 10.5,9.8 0,5.4 -4.7,9.8 -10.5,9.8 -5.8,0 -10.5,-4.4 -10.5,-9.8 z"
     class="st2" /><path
     style="fill:none;stroke:#000000;stroke-width:0.75;stroke-linejoin:round;stroke-miterlimit:14.3355999"
     id="path164"
     d="m 50.8,153.3 v 0 c 0,-5.4 4.7,-9.8 10.5,-9.8 5.8,0 10.5,4.4 10.5,9.8 0,5.4 -4.7,9.8 -10.5,9.8 -5.8,0 -10.5,-4.4 -10.5,-9.8 z"
     class="st5" /><path
     style="clip-rule:evenodd;fill:#ffffff;fill-rule:evenodd"
     id="path166"
     d="m 50.8,181.5 v 0 c 0,-5.4 4.7,-9.8 10.5,-9.8 5.8,0 10.5,4.4 10.5,9.8 0,5.4 -4.7,9.8 -10.5,9.8 -5.8,0 -10.5,-4.4 -10.5,-9.8 z"
     class="st2" /><path
     style="fill:none;stroke:#000000;stroke-width:0.75;stroke-linejoin:round;stroke-miterlimit:14.3355999"
     id="path168"
     d="m 50.8,181.5 v 0 c 0,-5.4 4.7,-9.8 10.5,-9.8 5.8,0 10.5,4.4 10.5,9.8 0,5.4 -4.7,9.8 -10.5,9.8 -5.8,0 -10.5,-4.4 -10.5,-9.8 z"
     class="st5" /><line
     style="clip-rule:evenodd;opacity:0;fill-rule:evenodd"
     id="line170"
     y2="68.800003"
     x2="128.3"
     y1="68.800003"
     x1="71.099998"
     class="st4" /><line
     style="fill:none;stroke:#424242;stroke-width:0.75;stroke-linejoin:round;stroke-miterlimit:14.3355999"
     id="line172"
     y2="68.800003"
     x2="128.3"
     y1="68.800003"
     x1="71.099998"
     class="st3" /><line
     style="clip-rule:evenodd;opacity:0;fill-rule:evenodd"
     id="line174"
     y2="97"
     x2="129"
     y1="97"
     x1="71.800003"
     class="st4" /><line
     style="fill:none;stroke:#424242;stroke-width:0.75;stroke-linejoin:round;stroke-miterlimit:14.3355999"
     id="line176"
     y2="97"
     x2="129"
     y1="97"
     x1="71.800003"
     class="st3" /><line
     style="clip-rule:evenodd;opacity:0;fill-rule:evenodd"
     id="line178"
     y2="125.2"
     x2="129"
     y1="125.2"
     x1="71.800003"
     class="st4" /><line
     style="fill:none;stroke:#424242;stroke-width:0.75;stroke-linejoin:round;stroke-miterlimit:14.3355999"
     id="line180"
     y2="125.2"
     x2="129"
     y1="125.2"
     x1="71.800003"
     class="st3" /><line
     style="clip-rule:evenodd;opacity:0;fill-rule:evenodd"
     id="line182"
     y2="153.3"
     x2="129"
     y1="153.3"
     x1="71.800003"
     class="st4" /><line
     style="fill:none;stroke:#424242;stroke-width:0.75;stroke-linejoin:round;stroke-miterlimit:14.3355999"
     id="line184"
     y2="153.3"
     x2="129"
     y1="153.3"
     x1="71.800003"
     class="st3" /><line
     style="clip-rule:evenodd;opacity:0;fill-rule:evenodd"
     id="line186"
     y2="181.5"
     x2="129"
     y1="181.5"
     x1="71.800003"
     class="st4" /><line
     style="fill:none;stroke:#424242;stroke-width:0.75;stroke-linejoin:round;stroke-miterlimit:14.3355999"
     id="line188"
     y2="181.5"
     x2="129"
     y1="181.5"
     x1="71.800003"
     class="st3" /><line
     style="clip-rule:evenodd;opacity:0;fill-rule:evenodd"
     id="line190"
     y2="97"
     x2="128.3"
     y1="68.800003"
     x1="71.099998"
     class="st4" /><line
     style="fill:none;stroke:#424242;stroke-width:0.75;stroke-linejoin:round;stroke-miterlimit:14.3355999"
     id="line192"
     y2="97"
     x2="128.3"
     y1="68.800003"
     x1="71.099998"
     class="st3" /><line
     style="clip-rule:evenodd;opacity:0;fill-rule:evenodd"
     id="line194"
     y2="125.2"
     x2="129"
     y1="97"
     x1="71.800003"
     class="st4" /><line
     style="fill:none;stroke:#424242;stroke-width:0.75;stroke-linejoin:round;stroke-miterlimit:14.3355999"
     id="line196"
     y2="125.2"
     x2="129"
     y1="97"
     x1="71.800003"
     class="st3" /><line
     style="clip-rule:evenodd;opacity:0;fill-rule:evenodd"
     id="line198"
     y2="153.3"
     x2="129"
     y1="125.2"
     x1="71.800003"
     class="st4" /><line
     style="fill:none;stroke:#424242;stroke-width:0.75;stroke-linejoin:round;stroke-miterlimit:14.3355999"
     id="line200"
     y2="153.3"
     x2="129"
     y1="125.2"
     x1="71.800003"
     class="st3" /><line
     style="clip-rule:evenodd;opacity:0;fill-rule:evenodd"
     id="line202"
     y2="181.5"
     x2="129"
     y1="153.3"
     x1="71.800003"
     class="st4" /><line
     style="fill:none;stroke:#424242;stroke-width:0.75;stroke-linejoin:round;stroke-miterlimit:14.3355999"
     id="line204"
     y2="181.5"
     x2="129"
     y1="153.3"
     x1="71.800003"
     class="st3" /><line
     style="clip-rule:evenodd;opacity:0;fill-rule:evenodd"
     id="line206"
     y2="153.3"
     x2="129"
     y1="181.5"
     x1="71.800003"
     class="st4" /><line
     style="fill:none;stroke:#424242;stroke-width:0.75;stroke-linejoin:round;stroke-miterlimit:14.3355999"
     id="line208"
     y2="153.3"
     x2="129"
     y1="181.5"
     x1="71.800003"
     class="st3" /><line
     style="clip-rule:evenodd;opacity:0;fill-rule:evenodd"
     id="line210"
     y2="125.2"
     x2="129"
     y1="153.3"
     x1="71.800003"
     class="st4" /><line
     style="fill:none;stroke:#424242;stroke-width:0.75;stroke-linejoin:round;stroke-miterlimit:14.3355999"
     id="line212"
     y2="125.2"
     x2="129"
     y1="153.3"
     x1="71.800003"
     class="st3" /><line
     style="clip-rule:evenodd;opacity:0;fill-rule:evenodd"
     id="line214"
     y2="97"
     x2="129"
     y1="125.2"
     x1="71.800003"
     class="st4" /><line
     style="fill:none;stroke:#424242;stroke-width:0.75;stroke-linejoin:round;stroke-miterlimit:14.3355999"
     id="line216"
     y2="97"
     x2="129"
     y1="125.2"
     x1="71.800003"
     class="st3" /><line
     style="clip-rule:evenodd;opacity:0;fill-rule:evenodd"
     id="line218"
     y2="68.800003"
     x2="129"
     y1="97"
     x1="71.800003"
     class="st4" /><line
     style="fill:none;stroke:#424242;stroke-width:0.75;stroke-linejoin:round;stroke-miterlimit:14.3355999"
     id="line220"
     y2="68.800003"
     x2="129"
     y1="97"
     x1="71.800003"
     class="st3" /><line
     style="clip-rule:evenodd;opacity:0;fill-rule:evenodd"
     id="line222"
     y2="125.2"
     x2="128.3"
     y1="68.800003"
     x1="71.099998"
     class="st4" /><line
     style="fill:none;stroke:#424242;stroke-width:0.75;stroke-linejoin:round;stroke-miterlimit:14.3355999"
     id="line224"
     y2="125.2"
     x2="128.3"
     y1="68.800003"
     x1="71.099998"
     class="st3" /><line
     style="clip-rule:evenodd;opacity:0;fill-rule:evenodd"
     id="line226"
     y2="153.3"
     x2="129"
     y1="97"
     x1="71.800003"
     class="st4" /><line
     style="fill:none;stroke:#424242;stroke-width:0.75;stroke-linejoin:round;stroke-miterlimit:14.3355999"
     id="line228"
     y2="153.3"
     x2="129"
     y1="97"
     x1="71.800003"
     class="st3" /><line
     style="clip-rule:evenodd;opacity:0;fill-rule:evenodd"
     id="line230"
     y2="181.5"
     x2="129"
     y1="125.2"
     x1="71.800003"
     class="st4" /><line
     style="fill:none;stroke:#424242;stroke-width:0.75;stroke-linejoin:round;stroke-miterlimit:14.3355999"
     id="line232"
     y2="181.5"
     x2="129"
     y1="125.2"
     x1="71.800003"
     class="st3" /><line
     style="clip-rule:evenodd;opacity:0;fill-rule:evenodd"
     id="line234"
     y2="125.2"
     x2="129"
     y1="181.5"
     x1="71.800003"
     class="st4" /><line
     style="fill:none;stroke:#424242;stroke-width:0.75;stroke-linejoin:round;stroke-miterlimit:14.3355999"
     id="line236"
     y2="125.2"
     x2="129"
     y1="181.5"
     x1="71.800003"
     class="st3" /><line
     style="clip-rule:evenodd;opacity:0;fill-rule:evenodd"
     id="line238"
     y2="97"
     x2="129"
     y1="153.3"
     x1="71.800003"
     class="st4" /><line
     style="fill:none;stroke:#424242;stroke-width:0.75;stroke-linejoin:round;stroke-miterlimit:14.3355999"
     id="line240"
     y2="97"
     x2="129"
     y1="153.3"
     x1="71.800003"
     class="st3" /><line
     style="clip-rule:evenodd;opacity:0;fill-rule:evenodd"
     id="line242"
     y2="68.800003"
     x2="129"
     y1="125.2"
     x1="71.800003"
     class="st4" /><line
     style="fill:none;stroke:#424242;stroke-width:0.75;stroke-linejoin:round;stroke-miterlimit:14.3355999"
     id="line244"
     y2="68.800003"
     x2="129"
     y1="125.2"
     x1="71.800003"
     class="st3" /><line
     style="clip-rule:evenodd;opacity:0;fill-rule:evenodd"
     id="line246"
     y2="153.3"
     x2="128.3"
     y1="68.800003"
     x1="71.099998"
     class="st4" /><line
     style="fill:none;stroke:#424242;stroke-width:0.75;stroke-linejoin:round;stroke-miterlimit:14.3355999"
     id="line248"
     y2="153.3"
     x2="128.3"
     y1="68.800003"
     x1="71.099998"
     class="st3" /><line
     style="clip-rule:evenodd;opacity:0;fill-rule:evenodd"
     id="line250"
     y2="181.5"
     x2="129"
     y1="97"
     x1="71.800003"
     class="st4" /><line
     style="fill:none;stroke:#424242;stroke-width:0.75;stroke-linejoin:round;stroke-miterlimit:14.3355999"
     id="line252"
     y2="181.5"
     x2="129"
     y1="97"
     x1="71.800003"
     class="st3" /><line
     style="clip-rule:evenodd;opacity:0;fill-rule:evenodd"
     id="line254"
     y2="97"
     x2="129"
     y1="181.5"
     x1="71.800003"
     class="st4" /><line
     style="fill:none;stroke:#424242;stroke-width:0.75;stroke-linejoin:round;stroke-miterlimit:14.3355999"
     id="line256"
     y2="97"
     x2="129"
     y1="181.5"
     x1="71.800003"
     class="st3" /><line
     style="clip-rule:evenodd;opacity:0;fill-rule:evenodd"
     id="line258"
     y2="68.800003"
     x2="129"
     y1="153.3"
     x1="71.800003"
     class="st4" /><line
     style="fill:none;stroke:#424242;stroke-width:0.75;stroke-linejoin:round;stroke-miterlimit:14.3355999"
     id="line260"
     y2="68.800003"
     x2="129"
     y1="153.3"
     x1="71.800003"
     class="st3" /><line
     style="clip-rule:evenodd;opacity:0;fill-rule:evenodd"
     id="line262"
     y2="68.800003"
     x2="129"
     y1="181.5"
     x1="71.800003"
     class="st4" /><line
     style="fill:none;stroke:#424242;stroke-width:0.75;stroke-linejoin:round;stroke-miterlimit:14.3355999"
     id="line264"
     y2="68.800003"
     x2="129"
     y1="181.5"
     x1="71.800003"
     class="st3" /><line
     style="clip-rule:evenodd;opacity:0;fill-rule:evenodd"
     id="line266"
     y2="181.5"
     x2="128.3"
     y1="68.800003"
     x1="71.099998"
     class="st4" /><line
     style="fill:none;stroke:#424242;stroke-width:0.75;stroke-linejoin:round;stroke-miterlimit:14.3355999"
     id="line268"
     y2="181.5"
     x2="128.3"
     y1="68.800003"
     x1="71.099998"
     class="st3" /><rect
     style="clip-rule:evenodd;opacity:0;fill-rule:evenodd"
     id="rect270"
     height="30.9"
     width="100.6"
     class="st4"
     y="51.299999"
     x="238.39999" /><text
     y="69.566399"
     x="245.1044"
     style="font-size:12px;font-family:Roboto-Regular;fill:#666666"
     id="text272"
     class="st6 st7 st8">apple: yes/no?</text>
<line
     style="clip-rule:evenodd;opacity:0;fill-rule:evenodd"
     id="line274"
     y2="125.4"
     x2="27.799999"
     y1="124.9"
     x1="0"
     class="st4" /><line
     style="fill:none;stroke:#424242;stroke-width:0.75;stroke-linejoin:round;stroke-miterlimit:14.3355999;stroke-dasharray:0.75, 2.25"
     id="line276"
     y2="125.3"
     x2="23.299999"
     y1="124.9"
     x1="0"
     class="st9" /><polygon
     style="clip-rule:evenodd;fill:#424242;fill-rule:evenodd"
     id="polygon278"
     points="23.3,124.1 23.2,126.6 26.7,125.4 "
     class="st10" /><polygon
     style="fill:none;stroke:#424242;stroke-width:0.75;stroke-miterlimit:11.47369957"
     id="polygon280"
     points="23.3,124.1 23.2,126.6 26.7,125.4 "
     class="st11" /><rect
     style="clip-rule:evenodd;opacity:0;fill-rule:evenodd"
     id="rect282"
     height="30.9"
     width="100.6"
     class="st4"
     y="79.5"
     x="238.39999" /><text
     y="97.738297"
     x="245.1044"
     style="font-size:12px;font-family:Roboto-Regular;fill:#666666"
     id="text284"
     class="st6 st7 st8">bear: yes/no? </text>
<rect
     style="clip-rule:evenodd;opacity:0;fill-rule:evenodd"
     id="rect286"
     height="30.9"
     width="100.6"
     class="st4"
     y="107.7"
     x="238.39999" /><text
     y="125.9248"
     x="245.1044"
     style="font-size:12px;font-family:Roboto-Regular;fill:#666666"
     id="text288"
     class="st6 st7 st8">candy: yes/no?</text>
<rect
     style="clip-rule:evenodd;opacity:0;fill-rule:evenodd"
     id="rect290"
     height="30.9"
     width="100.6"
     class="st4"
     y="135.8"
     x="238.39999" /><text
     y="154.106"
     x="245.1044"
     style="font-size:12px;font-family:Roboto-Regular;fill:#666666"
     id="text292"
     class="st6 st7 st8">dog: yes/no?</text>
<rect
     style="clip-rule:evenodd;opacity:0;fill-rule:evenodd"
     id="rect294"
     height="30.9"
     width="100.6"
     class="st4"
     y="164"
     x="238.39999" /><text
     y="182.28329"
     x="245.1044"
     style="font-size:12px;font-family:Roboto-Regular;fill:#666666"
     id="text296"
     class="st6 st7 st8">egg: yes/no?</text>
<path
     style="clip-rule:evenodd;fill:#b4a7d6;fill-rule:evenodd"
     id="path298"
     d="m 182.2,206.6 v 0 c 0,-3.2 2.6,-5.8 5.8,-5.8 h 67.4 c 1.5,0 3,0.6 4.1,1.7 1.1,1.1 1.7,2.6 1.7,4.1 v 23.2 c 0,3.2 -2.6,5.8 -5.8,5.8 H 188 c -3.2,0 -5.8,-2.6 -5.8,-5.8 z"
     class="st0" /><text
     y="222.5569"
     x="199.01151"
     style="font-size:12px;font-family:Roboto-Bold"
     id="text300"
     class="st12 st8">Softmax</text>
<rect
     style="clip-rule:evenodd;opacity:0;fill-rule:evenodd"
     y="0"
     id="rect302"
     height="19.6"
     width="52.200001"
     class="st4"
     x="35.200001" /><text
     y="18.269699"
     x="42.2929"
     style="font-size:12px;font-family:Roboto-Bold"
     id="text304"
     class="st12 st8">hidden</text>
<rect
     style="clip-rule:evenodd;opacity:0;fill-rule:evenodd"
     id="rect306"
     height="19.6"
     width="52.200001"
     class="st4"
     y="20.700001"
     x="113.2" /><text
     y="39.006001"
     x="121.0113"
     style="font-size:12px;font-family:Roboto-Bold"
     id="text308"
     class="st12 st8">hidden</text>
<rect
     style="clip-rule:evenodd;opacity:0;fill-rule:evenodd"
     id="rect310"
     height="19.6"
     width="52.200001"
     class="st4"
     y="21"
     x="197.2" /><text
     y="40.295399"
     x="203.19701"
     style="font-size:12px;font-family:Roboto-Bold"
     id="text312"
     class="st12 st8">logits</text>
<path
     style="clip-rule:evenodd;fill:#ffffff;fill-rule:evenodd"
     id="path314"
     d="m 50.8,209.7 v 0 c 0,-5.4 4.7,-9.8 10.5,-9.8 5.8,0 10.5,4.4 10.5,9.8 0,5.4 -4.7,9.8 -10.5,9.8 -5.8,0 -10.5,-4.4 -10.5,-9.8 z"
     class="st2" /><path
     style="fill:none;stroke:#000000;stroke-width:0.75;stroke-linejoin:round;stroke-miterlimit:14.3355999"
     id="path316"
     d="m 50.8,209.7 v 0 c 0,-5.4 4.7,-9.8 10.5,-9.8 5.8,0 10.5,4.4 10.5,9.8 0,5.4 -4.7,9.8 -10.5,9.8 -5.8,0 -10.5,-4.4 -10.5,-9.8 z"
     class="st5" /><path
     style="clip-rule:evenodd;fill:#ffffff;fill-rule:evenodd"
     id="path318"
     d="m 50.8,40.5 v 0 c 0,-5.4 4.7,-9.8 10.5,-9.8 5.8,0 10.5,4.4 10.5,9.8 0,5.4 -4.7,9.8 -10.5,9.8 -5.8,0 -10.5,-4.4 -10.5,-9.8 z"
     class="st2" /><path
     style="fill:none;stroke:#000000;stroke-width:0.75;stroke-linejoin:round;stroke-miterlimit:14.3355999"
     id="path320"
     d="m 50.8,40.5 v 0 c 0,-5.4 4.7,-9.8 10.5,-9.8 5.8,0 10.5,4.4 10.5,9.8 0,5.4 -4.7,9.8 -10.5,9.8 -5.8,0 -10.5,-4.4 -10.5,-9.8 z"
     class="st5" /><line
     style="clip-rule:evenodd;opacity:0;fill-rule:evenodd"
     id="line322"
     y2="68.199997"
     x2="128.10001"
     y1="41.900002"
     x1="71.800003"
     class="st4" /><line
     style="fill:none;stroke:#424242;stroke-width:0.75;stroke-linejoin:round;stroke-miterlimit:14.3355999"
     id="line324"
     y2="68.199997"
     x2="128.10001"
     y1="41.900002"
     x1="71.800003"
     class="st3" /><line
     style="clip-rule:evenodd;opacity:0;fill-rule:evenodd"
     id="line326"
     y2="98.300003"
     x2="129.60001"
     y1="41.599998"
     x1="71.800003"
     class="st4" /><line
     style="fill:none;stroke:#424242;stroke-width:0.75;stroke-linejoin:round;stroke-miterlimit:14.3355999"
     id="line328"
     y2="98.300003"
     x2="129.60001"
     y1="41.599998"
     x1="71.800003"
     class="st3" /><line
     style="clip-rule:evenodd;opacity:0;fill-rule:evenodd"
     id="line330"
     y2="124.9"
     x2="129.60001"
     y1="42.200001"
     x1="71.800003"
     class="st4" /><line
     style="fill:none;stroke:#424242;stroke-width:0.75;stroke-linejoin:round;stroke-miterlimit:14.3355999"
     id="line332"
     y2="124.9"
     x2="129.60001"
     y1="42.200001"
     x1="71.800003"
     class="st3" /><line
     style="clip-rule:evenodd;opacity:0;fill-rule:evenodd"
     id="line334"
     y2="153.39999"
     x2="128.10001"
     y1="41"
     x1="71.800003"
     class="st4" /><line
     style="fill:none;stroke:#424242;stroke-width:0.75;stroke-linejoin:round;stroke-miterlimit:14.3355999"
     id="line336"
     y2="153.39999"
     x2="128.10001"
     y1="41"
     x1="71.800003"
     class="st3" /><line
     style="clip-rule:evenodd;opacity:0;fill-rule:evenodd"
     id="line338"
     y2="182.2"
     x2="129.60001"
     y1="43.200001"
     x1="71.800003"
     class="st4" /><line
     style="fill:none;stroke:#424242;stroke-width:0.75;stroke-linejoin:round;stroke-miterlimit:14.3355999"
     id="line340"
     y2="182.2"
     x2="129.60001"
     y1="43.200001"
     x1="71.800003"
     class="st3" /><line
     style="clip-rule:evenodd;opacity:0;fill-rule:evenodd"
     id="line342"
     y2="67.099998"
     x2="128.5"
     y1="203.2"
     x1="69.099998"
     class="st4" /><line
     style="fill:none;stroke:#424242;stroke-width:0.75;stroke-linejoin:round;stroke-miterlimit:14.3355999"
     id="line344"
     y2="67.099998"
     x2="128.5"
     y1="203.2"
     x1="69.099998"
     class="st3" /><line
     style="clip-rule:evenodd;opacity:0;fill-rule:evenodd"
     id="line346"
     y2="95.300003"
     x2="130"
     y1="203.2"
     x1="69.099998"
     class="st4" /><line
     style="fill:none;stroke:#424242;stroke-width:0.75;stroke-linejoin:round;stroke-miterlimit:14.3355999"
     id="line348"
     y2="95.300003"
     x2="130"
     y1="203.2"
     x1="69.099998"
     class="st3" /><line
     style="clip-rule:evenodd;opacity:0;fill-rule:evenodd"
     id="line350"
     y2="123.5"
     x2="130"
     y1="203.2"
     x1="69.099998"
     class="st4" /><line
     style="fill:none;stroke:#424242;stroke-width:0.75;stroke-linejoin:round;stroke-miterlimit:14.3355999"
     id="line352"
     y2="123.5"
     x2="130"
     y1="203.2"
     x1="69.099998"
     class="st3" /><line
     style="clip-rule:evenodd;opacity:0;fill-rule:evenodd"
     id="line354"
     y2="151.7"
     x2="130"
     y1="203.2"
     x1="69.099998"
     class="st4" /><line
     style="fill:none;stroke:#424242;stroke-width:0.75;stroke-linejoin:round;stroke-miterlimit:14.3355999"
     id="line356"
     y2="151.7"
     x2="130"
     y1="203.2"
     x1="69.099998"
     class="st3" /><line
     style="clip-rule:evenodd;opacity:0;fill-rule:evenodd"
     id="line358"
     y2="179.5"
     x2="129.60001"
     y1="203.89999"
     x1="68.800003"
     class="st4" /><line
     style="fill:none;stroke:#424242;stroke-width:0.75;stroke-linejoin:round;stroke-miterlimit:14.3355999"
     id="line360"
     y2="179.5"
     x2="129.60001"
     y1="203.89999"
     x1="68.800003"
     class="st3" /></svg>
