<?xml version="1.0" encoding="UTF-8" standalone="no"?>
<svg xmlns="http://www.w3.org/2000/svg" version="1.1" width="601" height="402">
<g stroke="#000" stroke-width="2px">
<g fill="#ff0">
<rect width="18" height="19" x="91" y="70" />
<rect width="18" height="19" x="150" y="66" />
<rect width="18" height="19" x="129" y="91" />
<rect width="18" height="19" x="173" y="88" />
<rect width="18" height="19" x="154" y="105" />
<rect width="18" height="19" x="100" y="104" />
<rect width="18" height="19" x="117" y="131" />
<rect width="18" height="19" x="144" y="129" />
<rect width="18" height="19" x="180" y="114" />
<rect width="18" height="19" x="147" y="155" />
<rect width="18" height="19" x="114" y="164" />
<rect width="18" height="19" x="91" y="151" />
<rect width="18" height="19" x="186" y="155" />
<rect width="18" height="19" x="176" y="145" />
<rect width="18" height="19" x="139" y="173" />
<rect width="18" height="19" x="203" y="234" />
<rect width="18" height="19" x="129" y="274" />
<rect width="18" height="19" x="271" y="143" />
</g>
<g fill="#f00">
<rect width="18" height="19" x="315" y="203" />
<rect width="18" height="19" x="359" y="243" />
<rect width="18" height="19" x="322" y="254" />
<rect width="18" height="19" x="308" y="288" />
<rect width="18" height="19" x="301" y="326" />
<rect width="18" height="19" x="342" y="297" />
<rect width="18" height="19" x="348" y="273" />
<rect width="18" height="19" x="372" y="270" />
<rect width="18" height="19" x="375" y="308" />
<rect width="18" height="19" x="334" y="329" />
<rect width="18" height="19" x="455" y="320" />
</g>
<g fill="#00f">
<rect width="18" height="19" x="494" y="211" />
<rect width="18" height="19" x="424" y="181" />
<rect width="18" height="19" x="451" y="144" />
<rect width="18" height="19" x="475" y="135" />
<rect width="18" height="19" x="464" y="113" />
<rect width="18" height="19" x="438" y="107" />
<rect width="18" height="19" x="417" y="123" />
<rect width="18" height="19" x="395" y="95" />
<rect width="18" height="19" x="410" y="65" />
<rect width="18" height="19" x="439" y="67" />
<rect width="18" height="19" x="466" y="89" />
<rect width="18" height="19" x="343" y="65" />
</g>
</g>
</svg>